<?xml version="1.0"?>
<svg xmlns:rdf="http://www.w3.org/1999/02/22-rdf-syntax-ns#" xmlns="http://www.w3.org/2000/svg" xmlns:cc="http://creativecommons.org/ns#" xmlns:xlink="http://www.w3.org/1999/xlink" xmlns:dc="http://purl.org/dc/elements/1.1/" xmlns:svg="http://www.w3.org/2000/svg" id="svg3085" viewBox="0 0 136 136" version="1.1">
  <defs id="defs3087">
    <filter id="filter3823">
      <feGaussianBlur id="feGaussianBlur3825" stdDeviation="2.188784"/>
    </filter>
    <linearGradient id="linearGradient3839" y2="330.28" gradientUnits="userSpaceOnUse" y1="459.54" x2="584.06" x1="584.06">
      <stop id="stop3829" stop-color="#900" offset="0"/>
      <stop id="stop3831" stop-color="#ff8686" offset="1"/>
    </linearGradient>
    <linearGradient id="linearGradient3871" x1="352.11" gradientUnits="userSpaceOnUse" x2="352.11" gradientTransform="translate(-90 -605.71)" y1="594.95" y2="465.37">
      <stop id="stop3850" stop-color="#f00" offset="0"/>
      <stop id="stop3852" stop-color="#d10000" offset="1"/>
    </linearGradient>
    <linearGradient id="linearGradient3983" x1="-344.15" gradientUnits="userSpaceOnUse" x2="-395.85" gradientTransform="matrix(-.67946 0 0 .62779 -6.0931 -337.82)" y1="274.71" y2="425.4">
      <stop id="stop2557-7-7" stop-color="#fff" offset="0"/>
      <stop id="stop2559-4-4" stop-color="#fff" stop-opacity="0" offset="1"/>
    </linearGradient>
    <linearGradient id="linearGradient4005">
      <stop id="stop4007" stop-color="#ffe3e3" offset="0"/>
      <stop id="stop4009" stop-color="#fff" offset="1"/>
    </linearGradient>
    <linearGradient id="linearGradient3939" x1="283.9" xlink:href="#linearGradient4005" gradientUnits="userSpaceOnUse" x2="315.73" y1="-91.109" y2=".97081"/>
    <linearGradient id="linearGradient3941" x1="250.2" xlink:href="#linearGradient4005" gradientUnits="userSpaceOnUse" x2="279.02" y1="-110.97" y2="-.83455"/>
  </defs>
  <g id="layer1" transform="translate(-192 141.35)">
    <rect id="rect3242" transform="matrix(1.0299 0 0 1.0299 -340.78 -480.66)" rx="16.645" ry="16.645" height="126" width="126" stroke="url(#linearGradient3839)" y="332.47" x="520.32" stroke-width="2.9128" fill="#f00"/>
    <rect id="rect3837" rx="17.143" ry="17.143" height="129.77" width="129.77" y="-138.24" x="195.11" fill="url(#linearGradient3871)"/>
    <path id="path3781" opacity=".25105" style="block-progression:tb;color:#000000;text-transform:none;text-indent:0" d="m254.97-122.06c-2.381-0.0599-4.7582 0.0412-7.0494 0.28037-9.3054 0.97155-19.676 5.0795-28.078 11.575-8.4014 6.4959-14.98 15.646-14.98 26.596 0 10.767 5.7806 20.46 14.62 27.276 7.9553 6.1347 18.468 10.086 30.08 10.814-0.4068 2.432-1.6306 4.4119-3.4846 6.4086-2.6221 2.8239-6.5016 5.3223-10.254 7.6502a3.8455 3.8455 0 0 0 2.243 7.1295c12.026-0.72277 23.138-4.4654 30.12-14.219a3.8455 3.8455 0 1 0 -6.2484 -4.4459c-2.3285 3.2528-5.3063 5.496-8.7317 7.2096 2.6626-3.5283 4.5132-7.9454 4.1255-13.138a3.8455 3.8455 0 0 0 -0.0802 -1.0814 3.8455 3.8455 0 0 0 0 -0.03999 3.8455 3.8455 0 0 0 -0.0802 -0.36048 3.8455 3.8455 0 0 0 0 -0.03999 3.8455 3.8455 0 0 0 -0.16021 -0.32043 3.8455 3.8455 0 0 0 0 -0.03999 3.8455 3.8455 0 0 0 -0.16023 -0.28037 3.8455 3.8455 0 0 0 0 -0.03999 3.8455 3.8455 0 0 0 -0.44058 -0.6008 3.8455 3.8455 0 0 0 0 -0.03999 3.8455 3.8455 0 0 0 -0.24033 -0.24032 3.8455 3.8455 0 0 0 -0.04 -0.03999 3.8455 3.8455 0 0 0 -0.24032 -0.24032 3.8455 3.8455 0 0 0 -0.04 0 3.8455 3.8455 0 0 0 -0.28037 -0.20027 3.8455 3.8455 0 0 0 -0.04 0 3.8455 3.8455 0 0 0 -0.28037 -0.20027 3.8455 3.8455 0 0 0 -0.04 0 3.8455 3.8455 0 0 0 -0.32042 -0.16021 3.8455 3.8455 0 0 0 -0.04 0 3.8455 3.8455 0 0 0 -0.32043 -0.1201 3.8455 3.8455 0 0 0 -0.04 0 3.8455 3.8455 0 0 0 -0.32042 -0.08011 3.8455 3.8455 0 0 0 -0.0802 0 3.8455 3.8455 0 0 0 -0.76102 -0.08011 3.8455 3.8455 0 0 0 -0.28037 0.03999c-0.027-0.000206-0.0532 0.000256-0.0802 0-11.349-0.10189-21.552-3.7442-28.798-9.3325-7.3514-5.6692-11.616-13.152-11.616-21.189 0-7.8548 4.8012-14.96 11.976-20.507 7.1748-5.5474 16.593-9.2199 24.192-10.013 7.7405-0.80816 16.871 0.46697 24.753 3.6048s14.43 8.0898 17.704 14.099a3.8455 3.8455 0 1 0 6.729 -3.6849c-4.4487-8.1666-12.519-13.933-21.589-17.543-6.8027-2.7082-14.205-4.2264-21.349-4.4059zm35.648 34.606c-16.145 0-29.199 9.933-29.199 22.15 0 12.175 12.969 22.043 29.039 22.11 4.5076 7.481 10.839 10.637 20.628 10.975-4.7203-2.884-9.2862-6.4515-8.932-12.777 10.427-3.38 17.704-11.181 17.704-20.307 0-12.217-13.094-22.15-29.239-22.15z" filter="url(#filter3823)" stroke="#000" stroke-width="3"/>
    <path id="path3937" style="block-progression:tb;color:#000000;text-transform:none;text-indent:0" fill="url(#linearGradient3941)" d="m252.97-124.06c-2.381-0.0599-4.7582 0.0412-7.0494 0.28037-9.3054 0.97155-19.676 5.0795-28.078 11.575-8.4014 6.4959-14.98 15.646-14.98 26.596 0 10.767 5.7806 20.46 14.62 27.276 7.9553 6.1347 18.468 10.086 30.08 10.814-0.4068 2.432-1.6306 4.4119-3.4846 6.4086-2.6221 2.8239-6.5016 5.3223-10.254 7.6502a3.8455 3.8455 0 0 0 2.243 7.1295c12.026-0.72277 23.138-4.4654 30.12-14.219a3.8455 3.8455 0 1 0 -6.2484 -4.4459c-2.3285 3.2528-5.3063 5.496-8.7317 7.2096 2.6626-3.5283 4.5132-7.9454 4.1255-13.138a3.8455 3.8455 0 0 0 -0.0802 -1.0814 3.8455 3.8455 0 0 0 0 -0.03999 3.8455 3.8455 0 0 0 -0.0802 -0.36048 3.8455 3.8455 0 0 0 0 -0.03999 3.8455 3.8455 0 0 0 -0.16021 -0.32043 3.8455 3.8455 0 0 0 0 -0.03999 3.8455 3.8455 0 0 0 -0.16023 -0.28037 3.8455 3.8455 0 0 0 0 -0.03999 3.8455 3.8455 0 0 0 -0.44058 -0.6008 3.8455 3.8455 0 0 0 0 -0.03999 3.8455 3.8455 0 0 0 -0.24033 -0.24032 3.8455 3.8455 0 0 0 -0.04 -0.03999 3.8455 3.8455 0 0 0 -0.24032 -0.24032 3.8455 3.8455 0 0 0 -0.04 0 3.8455 3.8455 0 0 0 -0.28037 -0.20027 3.8455 3.8455 0 0 0 -0.04 0 3.8455 3.8455 0 0 0 -0.28037 -0.20027 3.8455 3.8455 0 0 0 -0.04 0 3.8455 3.8455 0 0 0 -0.32042 -0.16021 3.8455 3.8455 0 0 0 -0.04 0 3.8455 3.8455 0 0 0 -0.32043 -0.1201 3.8455 3.8455 0 0 0 -0.04 0 3.8455 3.8455 0 0 0 -0.32042 -0.08011 3.8455 3.8455 0 0 0 -0.0802 0 3.8455 3.8455 0 0 0 -0.76102 -0.08011 3.8455 3.8455 0 0 0 -0.28037 0.03999c-0.027-0.000206-0.0532 0.000256-0.0802 0-11.349-0.10189-21.552-3.7442-28.798-9.3325-7.3514-5.6692-11.616-13.152-11.616-21.189 0-7.8548 4.8012-14.96 11.976-20.507 7.1748-5.5474 16.593-9.2199 24.192-10.013 7.7405-0.80816 16.871 0.46697 24.753 3.6048s14.43 8.0898 17.704 14.099a3.8455 3.8455 0 1 0 6.729 -3.6849c-4.4487-8.1666-12.519-13.933-21.589-17.543-6.8027-2.7082-14.205-4.2264-21.349-4.4059z"/>
    <path id="path4681" style="block-progression:tb;color:#000000;text-transform:none;text-indent:0" fill="url(#linearGradient3939)" d="m288.62-89.453c-16.145 0-29.199 9.933-29.199 22.15 0 12.175 12.969 22.043 29.039 22.11 4.5076 7.481 10.839 10.637 20.628 10.975-4.7203-2.884-9.2862-6.4515-8.932-12.777 10.427-3.38 17.704-11.181 17.704-20.307 0-12.217-13.094-22.15-29.239-22.15z"/>
    <path id="path3250" fill-rule="evenodd" fill="url(#linearGradient3983)" d="m301.19-137.31h-75.698c-23.751 0-29.378 7.1854-29.378 27.144v67.823c0.6092 13.574 2.9526 4.9929 7.4131-10.04 5.1841-17.471 22.067-32.741 42.628-44.184 15.693-8.7347 33.26-14.263 65.233-14.843 16.593-0.3009 17.457-26.706-10.198-25.9z"/>
  </g>
  <metadata>
    <rdf:RDF>
      <cc:Work>
        <dc:format>image/svg+xml</dc:format>
        <dc:type rdf:resource="http://purl.org/dc/dcmitype/StillImage"/>
        <cc:license rdf:resource="http://creativecommons.org/licenses/publicdomain/"/>
        <dc:publisher>
          <cc:Agent rdf:about="http://openclipart.org/">
            <dc:title>Openclipart</dc:title>
          </cc:Agent>
        </dc:publisher>
        <dc:title>Chat Button</dc:title>
        <dc:date>2012-05-28T13:24:00</dc:date>
        <dc:description>button, chat, clip art, clipart, glass, glossy, red, </dc:description>
        <dc:source>http://openclipart.org/detail/170274/chat-button-by-scyg</dc:source>
        <dc:creator>
          <cc:Agent>
            <dc:title>scyg</dc:title>
          </cc:Agent>
        </dc:creator>
        <dc:subject>
          <rdf:Bag>
            <rdf:li>button</rdf:li>
            <rdf:li>chat</rdf:li>
            <rdf:li>clip art</rdf:li>
            <rdf:li>clipart</rdf:li>
            <rdf:li>glass</rdf:li>
            <rdf:li>glossy</rdf:li>
            <rdf:li>red</rdf:li>
          </rdf:Bag>
        </dc:subject>
      </cc:Work>
      <cc:License rdf:about="http://creativecommons.org/licenses/publicdomain/">
        <cc:permits rdf:resource="http://creativecommons.org/ns#Reproduction"/>
        <cc:permits rdf:resource="http://creativecommons.org/ns#Distribution"/>
        <cc:permits rdf:resource="http://creativecommons.org/ns#DerivativeWorks"/>
      </cc:License>
    </rdf:RDF>
  </metadata>
</svg>
